<svg xmlns="http://www.w3.org/2000/svg" width="800" height="400" viewBox="0 0 800 400"><rect width="800" height="400" fill="#ffffff" /><line x1="18.02813657945118" y1="0" x2="18.02813657945118" y2="400" stroke="#e0e0e0" stroke-width="1" stroke-dasharray="5,5" /><line x1="81.6901138162093" y1="0" x2="81.6901138162093" y2="400" stroke="#e0e0e0" stroke-width="1" stroke-dasharray="5,5" /><line x1="145.35209105296744" y1="0" x2="145.35209105296744" y2="400" stroke="#e0e0e0" stroke-width="1" stroke-dasharray="5,5" /><line x1="209.01406828972557" y1="0" x2="209.01406828972557" y2="400" stroke="#e0e0e0" stroke-width="1" stroke-dasharray="5,5" /><line x1="272.67604552648373" y1="0" x2="272.67604552648373" y2="400" stroke="#e0e0e0" stroke-width="1" stroke-dasharray="5,5" /><line x1="336.33802276324184" y1="0" x2="336.33802276324184" y2="400" stroke="#e0e0e0" stroke-width="1" stroke-dasharray="5,5" /><line x1="400" y1="0" x2="400" y2="400" stroke="#e0e0e0" stroke-width="1" stroke-dasharray="5,5" /><line x1="463.6619772367581" y1="0" x2="463.6619772367581" y2="400" stroke="#e0e0e0" stroke-width="1" stroke-dasharray="5,5" /><line x1="527.3239544735162" y1="0" x2="527.3239544735162" y2="400" stroke="#e0e0e0" stroke-width="1" stroke-dasharray="5,5" /><line x1="590.9859317102744" y1="0" x2="590.9859317102744" y2="400" stroke="#e0e0e0" stroke-width="1" stroke-dasharray="5,5" /><line x1="654.6479089470325" y1="0" x2="654.6479089470325" y2="400" stroke="#e0e0e0" stroke-width="1" stroke-dasharray="5,5" /><line x1="718.3098861837907" y1="0" x2="718.3098861837907" y2="400" stroke="#e0e0e0" stroke-width="1" stroke-dasharray="5,5" /><line x1="781.9718634205487" y1="0" x2="781.9718634205487" y2="400" stroke="#e0e0e0" stroke-width="1" stroke-dasharray="5,5" /><line x1="0" y1="400" x2="800" y2="400" stroke="#e0e0e0" stroke-width="1" stroke-dasharray="5,5" /><line x1="0" y1="380" x2="800" y2="380" stroke="#e0e0e0" stroke-width="1" stroke-dasharray="5,5" /><line x1="0" y1="360" x2="800" y2="360" stroke="#e0e0e0" stroke-width="1" stroke-dasharray="5,5" /><line x1="0" y1="340" x2="800" y2="340" stroke="#e0e0e0" stroke-width="1" stroke-dasharray="5,5" /><line x1="0" y1="320" x2="800" y2="320" stroke="#e0e0e0" stroke-width="1" stroke-dasharray="5,5" /><line x1="0" y1="300" x2="800" y2="300" stroke="#e0e0e0" stroke-width="1" stroke-dasharray="5,5" /><line x1="0" y1="280" x2="800" y2="280" stroke="#e0e0e0" stroke-width="1" stroke-dasharray="5,5" /><line x1="0" y1="260" x2="800" y2="260" stroke="#e0e0e0" stroke-width="1" stroke-dasharray="5,5" /><line x1="0" y1="240.00000000000003" x2="800" y2="240.00000000000003" stroke="#e0e0e0" stroke-width="1" stroke-dasharray="5,5" /><line x1="0" y1="220.00000000000003" x2="800" y2="220.00000000000003" stroke="#e0e0e0" stroke-width="1" stroke-dasharray="5,5" /><line x1="0" y1="200.00000000000003" x2="800" y2="200.00000000000003" stroke="#e0e0e0" stroke-width="1" stroke-dasharray="5,5" /><line x1="0" y1="180.00000000000003" x2="800" y2="180.00000000000003" stroke="#e0e0e0" stroke-width="1" stroke-dasharray="5,5" /><line x1="0" y1="160" x2="800" y2="160" stroke="#e0e0e0" stroke-width="1" stroke-dasharray="5,5" /><line x1="0" y1="140.00000000000006" x2="800" y2="140.00000000000006" stroke="#e0e0e0" stroke-width="1" stroke-dasharray="5,5" /><line x1="0" y1="120" x2="800" y2="120" stroke="#e0e0e0" stroke-width="1" stroke-dasharray="5,5" /><line x1="0" y1="100" x2="800" y2="100" stroke="#e0e0e0" stroke-width="1" stroke-dasharray="5,5" /><line x1="0" y1="80" x2="800" y2="80" stroke="#e0e0e0" stroke-width="1" stroke-dasharray="5,5" /><line x1="0" y1="60.00000000000006" x2="800" y2="60.00000000000006" stroke="#e0e0e0" stroke-width="1" stroke-dasharray="5,5" /><line x1="0" y1="40.00000000000006" x2="800" y2="40.00000000000006" stroke="#e0e0e0" stroke-width="1" stroke-dasharray="5,5" /><line x1="0" y1="20" x2="800" y2="20" stroke="#e0e0e0" stroke-width="1" stroke-dasharray="5,5" /><line x1="0" y1="5.684341886080802e-14" x2="800" y2="5.684341886080802e-14" stroke="#e0e0e0" stroke-width="1" stroke-dasharray="5,5" /><line x1="0" y1="200" x2="800" y2="200" stroke="#000000" stroke-width="2" /><line x1="18.02813657945118" y1="195" x2="18.02813657945118" y2="205" stroke="#000000" stroke-width="1" /><text x="18.02813657945118" y="220" text-anchor="middle" font-family="Arial" font-size="12" fill="#000000">-6</text><line x1="81.6901138162093" y1="195" x2="81.6901138162093" y2="205" stroke="#000000" stroke-width="1" /><text x="81.6901138162093" y="220" text-anchor="middle" font-family="Arial" font-size="12" fill="#000000">-5</text><line x1="145.35209105296744" y1="195" x2="145.35209105296744" y2="205" stroke="#000000" stroke-width="1" /><text x="145.35209105296744" y="220" text-anchor="middle" font-family="Arial" font-size="12" fill="#000000">-4</text><line x1="209.01406828972557" y1="195" x2="209.01406828972557" y2="205" stroke="#000000" stroke-width="1" /><text x="209.01406828972557" y="220" text-anchor="middle" font-family="Arial" font-size="12" fill="#000000">-3</text><line x1="272.67604552648373" y1="195" x2="272.67604552648373" y2="205" stroke="#000000" stroke-width="1" /><text x="272.67604552648373" y="220" text-anchor="middle" font-family="Arial" font-size="12" fill="#000000">-2</text><line x1="336.33802276324184" y1="195" x2="336.33802276324184" y2="205" stroke="#000000" stroke-width="1" /><text x="336.33802276324184" y="220" text-anchor="middle" font-family="Arial" font-size="12" fill="#000000">-1</text><line x1="463.6619772367581" y1="195" x2="463.6619772367581" y2="205" stroke="#000000" stroke-width="1" /><text x="463.6619772367581" y="220" text-anchor="middle" font-family="Arial" font-size="12" fill="#000000">1</text><line x1="527.3239544735162" y1="195" x2="527.3239544735162" y2="205" stroke="#000000" stroke-width="1" /><text x="527.3239544735162" y="220" text-anchor="middle" font-family="Arial" font-size="12" fill="#000000">2</text><line x1="590.9859317102744" y1="195" x2="590.9859317102744" y2="205" stroke="#000000" stroke-width="1" /><text x="590.9859317102744" y="220" text-anchor="middle" font-family="Arial" font-size="12" fill="#000000">3</text><line x1="654.6479089470325" y1="195" x2="654.6479089470325" y2="205" stroke="#000000" stroke-width="1" /><text x="654.6479089470325" y="220" text-anchor="middle" font-family="Arial" font-size="12" fill="#000000">4</text><line x1="718.3098861837907" y1="195" x2="718.3098861837907" y2="205" stroke="#000000" stroke-width="1" /><text x="718.3098861837907" y="220" text-anchor="middle" font-family="Arial" font-size="12" fill="#000000">5</text><line x1="781.9718634205487" y1="195" x2="781.9718634205487" y2="205" stroke="#000000" stroke-width="1" /><text x="781.9718634205487" y="220" text-anchor="middle" font-family="Arial" font-size="12" fill="#000000">6</text><line x1="400" y1="0" x2="400" y2="400" stroke="#000000" stroke-width="2" /><line x1="395" y1="400" x2="405" y2="400" stroke="#000000" stroke-width="1" /><text x="390" y="405" text-anchor="end" font-family="Arial" font-size="12" fill="#000000">-2</text><line x1="395" y1="380" x2="405" y2="380" stroke="#000000" stroke-width="1" /><text x="390" y="385" text-anchor="end" font-family="Arial" font-size="12" fill="#000000">-1.8</text><line x1="395" y1="360" x2="405" y2="360" stroke="#000000" stroke-width="1" /><text x="390" y="365" text-anchor="end" font-family="Arial" font-size="12" fill="#000000">-1.6</text><line x1="395" y1="340" x2="405" y2="340" stroke="#000000" stroke-width="1" /><text x="390" y="345" text-anchor="end" font-family="Arial" font-size="12" fill="#000000">-1.4000000000000001</text><line x1="395" y1="320" x2="405" y2="320" stroke="#000000" stroke-width="1" /><text x="390" y="325" text-anchor="end" font-family="Arial" font-size="12" fill="#000000">-1.2000000000000002</text><line x1="395" y1="300" x2="405" y2="300" stroke="#000000" stroke-width="1" /><text x="390" y="305" text-anchor="end" font-family="Arial" font-size="12" fill="#000000">-1.0000000000000002</text><line x1="395" y1="280" x2="405" y2="280" stroke="#000000" stroke-width="1" /><text x="390" y="285" text-anchor="end" font-family="Arial" font-size="12" fill="#000000">-0.8000000000000003</text><line x1="395" y1="260" x2="405" y2="260" stroke="#000000" stroke-width="1" /><text x="390" y="265" text-anchor="end" font-family="Arial" font-size="12" fill="#000000">-0.6000000000000003</text><line x1="395" y1="240.00000000000003" x2="405" y2="240.00000000000003" stroke="#000000" stroke-width="1" /><text x="390" y="245.00000000000003" text-anchor="end" font-family="Arial" font-size="12" fill="#000000">-0.4000000000000003</text><line x1="395" y1="220.00000000000003" x2="405" y2="220.00000000000003" stroke="#000000" stroke-width="1" /><text x="390" y="225.00000000000003" text-anchor="end" font-family="Arial" font-size="12" fill="#000000">-0.2000000000000003</text><line x1="395" y1="180.00000000000003" x2="405" y2="180.00000000000003" stroke="#000000" stroke-width="1" /><text x="390" y="185.00000000000003" text-anchor="end" font-family="Arial" font-size="12" fill="#000000">0.19999999999999973</text><line x1="395" y1="160" x2="405" y2="160" stroke="#000000" stroke-width="1" /><text x="390" y="165" text-anchor="end" font-family="Arial" font-size="12" fill="#000000">0.39999999999999974</text><line x1="395" y1="140.00000000000006" x2="405" y2="140.00000000000006" stroke="#000000" stroke-width="1" /><text x="390" y="145.00000000000006" text-anchor="end" font-family="Arial" font-size="12" fill="#000000">0.5999999999999998</text><line x1="395" y1="120" x2="405" y2="120" stroke="#000000" stroke-width="1" /><text x="390" y="125" text-anchor="end" font-family="Arial" font-size="12" fill="#000000">0.7999999999999998</text><line x1="395" y1="100" x2="405" y2="100" stroke="#000000" stroke-width="1" /><text x="390" y="105" text-anchor="end" font-family="Arial" font-size="12" fill="#000000">0.9999999999999998</text><line x1="395" y1="80" x2="405" y2="80" stroke="#000000" stroke-width="1" /><text x="390" y="85" text-anchor="end" font-family="Arial" font-size="12" fill="#000000">1.1999999999999997</text><line x1="395" y1="60.00000000000006" x2="405" y2="60.00000000000006" stroke="#000000" stroke-width="1" /><text x="390" y="65.00000000000006" text-anchor="end" font-family="Arial" font-size="12" fill="#000000">1.3999999999999997</text><line x1="395" y1="40.00000000000006" x2="405" y2="40.00000000000006" stroke="#000000" stroke-width="1" /><text x="390" y="45.00000000000006" text-anchor="end" font-family="Arial" font-size="12" fill="#000000">1.5999999999999996</text><line x1="395" y1="20" x2="405" y2="20" stroke="#000000" stroke-width="1" /><text x="390" y="25" text-anchor="end" font-family="Arial" font-size="12" fill="#000000">1.7999999999999996</text><line x1="395" y1="5.684341886080802e-14" x2="405" y2="5.684341886080802e-14" stroke="#000000" stroke-width="1" /><text x="390" y="5.000000000000057" text-anchor="end" font-family="Arial" font-size="12" fill="#000000">1.9999999999999996</text><text x="390" y="220" text-anchor="end" font-family="Arial" font-size="12" fill="#000000">0</text><text x="400" y="390" text-anchor="middle" font-family="Arial" font-size="14" fill="#000000">x</text><text x="15" y="200" text-anchor="middle" font-family="Arial" font-size="14" fill="#000000" transform="rotate(-90, 15, 200)">y</text><text x="400" y="20" text-anchor="middle" font-family="Arial" font-size="16" fill="#000000">Cosine Function: y = cos(x)</text></svg>