<svg xmlns="http://www.w3.org/2000/svg" width="800" height="400" viewBox="0 0 800 400"><rect width="800" height="400" fill="#ffffff" /><line x1="0" y1="0" x2="0" y2="400" stroke="#e0e0e0" stroke-width="1" stroke-dasharray="5,5" /><line x1="50" y1="0" x2="50" y2="400" stroke="#e0e0e0" stroke-width="1" stroke-dasharray="5,5" /><line x1="100" y1="0" x2="100" y2="400" stroke="#e0e0e0" stroke-width="1" stroke-dasharray="5,5" /><line x1="150" y1="0" x2="150" y2="400" stroke="#e0e0e0" stroke-width="1" stroke-dasharray="5,5" /><line x1="200" y1="0" x2="200" y2="400" stroke="#e0e0e0" stroke-width="1" stroke-dasharray="5,5" /><line x1="250" y1="0" x2="250" y2="400" stroke="#e0e0e0" stroke-width="1" stroke-dasharray="5,5" /><line x1="300" y1="0" x2="300" y2="400" stroke="#e0e0e0" stroke-width="1" stroke-dasharray="5,5" /><line x1="350" y1="0" x2="350" y2="400" stroke="#e0e0e0" stroke-width="1" stroke-dasharray="5,5" /><line x1="400" y1="0" x2="400" y2="400" stroke="#e0e0e0" stroke-width="1" stroke-dasharray="5,5" /><line x1="450" y1="0" x2="450" y2="400" stroke="#e0e0e0" stroke-width="1" stroke-dasharray="5,5" /><line x1="500" y1="0" x2="500" y2="400" stroke="#e0e0e0" stroke-width="1" stroke-dasharray="5,5" /><line x1="550" y1="0" x2="550" y2="400" stroke="#e0e0e0" stroke-width="1" stroke-dasharray="5,5" /><line x1="600" y1="0" x2="600" y2="400" stroke="#e0e0e0" stroke-width="1" stroke-dasharray="5,5" /><line x1="650" y1="0" x2="650" y2="400" stroke="#e0e0e0" stroke-width="1" stroke-dasharray="5,5" /><line x1="700" y1="0" x2="700" y2="400" stroke="#e0e0e0" stroke-width="1" stroke-dasharray="5,5" /><line x1="750" y1="0" x2="750" y2="400" stroke="#e0e0e0" stroke-width="1" stroke-dasharray="5,5" /><line x1="800" y1="0" x2="800" y2="400" stroke="#e0e0e0" stroke-width="1" stroke-dasharray="5,5" /><line x1="0" y1="400" x2="800" y2="400" stroke="#e0e0e0" stroke-width="1" stroke-dasharray="5,5" /><line x1="0" y1="375" x2="800" y2="375" stroke="#e0e0e0" stroke-width="1" stroke-dasharray="5,5" /><line x1="0" y1="350" x2="800" y2="350" stroke="#e0e0e0" stroke-width="1" stroke-dasharray="5,5" /><line x1="0" y1="325" x2="800" y2="325" stroke="#e0e0e0" stroke-width="1" stroke-dasharray="5,5" /><line x1="0" y1="300" x2="800" y2="300" stroke="#e0e0e0" stroke-width="1" stroke-dasharray="5,5" /><line x1="0" y1="275" x2="800" y2="275" stroke="#e0e0e0" stroke-width="1" stroke-dasharray="5,5" /><line x1="0" y1="250" x2="800" y2="250" stroke="#e0e0e0" stroke-width="1" stroke-dasharray="5,5" /><line x1="0" y1="225" x2="800" y2="225" stroke="#e0e0e0" stroke-width="1" stroke-dasharray="5,5" /><line x1="0" y1="200" x2="800" y2="200" stroke="#e0e0e0" stroke-width="1" stroke-dasharray="5,5" /><line x1="0" y1="175" x2="800" y2="175" stroke="#e0e0e0" stroke-width="1" stroke-dasharray="5,5" /><line x1="0" y1="150" x2="800" y2="150" stroke="#e0e0e0" stroke-width="1" stroke-dasharray="5,5" /><line x1="0" y1="125" x2="800" y2="125" stroke="#e0e0e0" stroke-width="1" stroke-dasharray="5,5" /><line x1="0" y1="100" x2="800" y2="100" stroke="#e0e0e0" stroke-width="1" stroke-dasharray="5,5" /><line x1="0" y1="75" x2="800" y2="75" stroke="#e0e0e0" stroke-width="1" stroke-dasharray="5,5" /><line x1="0" y1="50" x2="800" y2="50" stroke="#e0e0e0" stroke-width="1" stroke-dasharray="5,5" /><line x1="0" y1="25" x2="800" y2="25" stroke="#e0e0e0" stroke-width="1" stroke-dasharray="5,5" /><line x1="0" y1="0" x2="800" y2="0" stroke="#e0e0e0" stroke-width="1" stroke-dasharray="5,5" /><line x1="0" y1="400" x2="800" y2="400" stroke="#000000" stroke-width="2" /><line x1="0" y1="395" x2="0" y2="405" stroke="#000000" stroke-width="1" /><text x="0" y="420" text-anchor="middle" font-family="Arial" font-size="12" fill="#000000">-4</text><line x1="50" y1="395" x2="50" y2="405" stroke="#000000" stroke-width="1" /><text x="50" y="420" text-anchor="middle" font-family="Arial" font-size="12" fill="#000000">-3.5</text><line x1="100" y1="395" x2="100" y2="405" stroke="#000000" stroke-width="1" /><text x="100" y="420" text-anchor="middle" font-family="Arial" font-size="12" fill="#000000">-3</text><line x1="150" y1="395" x2="150" y2="405" stroke="#000000" stroke-width="1" /><text x="150" y="420" text-anchor="middle" font-family="Arial" font-size="12" fill="#000000">-2.5</text><line x1="200" y1="395" x2="200" y2="405" stroke="#000000" stroke-width="1" /><text x="200" y="420" text-anchor="middle" font-family="Arial" font-size="12" fill="#000000">-2</text><line x1="250" y1="395" x2="250" y2="405" stroke="#000000" stroke-width="1" /><text x="250" y="420" text-anchor="middle" font-family="Arial" font-size="12" fill="#000000">-1.5</text><line x1="300" y1="395" x2="300" y2="405" stroke="#000000" stroke-width="1" /><text x="300" y="420" text-anchor="middle" font-family="Arial" font-size="12" fill="#000000">-1</text><line x1="350" y1="395" x2="350" y2="405" stroke="#000000" stroke-width="1" /><text x="350" y="420" text-anchor="middle" font-family="Arial" font-size="12" fill="#000000">-0.5</text><line x1="450" y1="395" x2="450" y2="405" stroke="#000000" stroke-width="1" /><text x="450" y="420" text-anchor="middle" font-family="Arial" font-size="12" fill="#000000">0.5</text><line x1="500" y1="395" x2="500" y2="405" stroke="#000000" stroke-width="1" /><text x="500" y="420" text-anchor="middle" font-family="Arial" font-size="12" fill="#000000">1</text><line x1="550" y1="395" x2="550" y2="405" stroke="#000000" stroke-width="1" /><text x="550" y="420" text-anchor="middle" font-family="Arial" font-size="12" fill="#000000">1.5</text><line x1="600" y1="395" x2="600" y2="405" stroke="#000000" stroke-width="1" /><text x="600" y="420" text-anchor="middle" font-family="Arial" font-size="12" fill="#000000">2</text><line x1="650" y1="395" x2="650" y2="405" stroke="#000000" stroke-width="1" /><text x="650" y="420" text-anchor="middle" font-family="Arial" font-size="12" fill="#000000">2.5</text><line x1="700" y1="395" x2="700" y2="405" stroke="#000000" stroke-width="1" /><text x="700" y="420" text-anchor="middle" font-family="Arial" font-size="12" fill="#000000">3</text><line x1="750" y1="395" x2="750" y2="405" stroke="#000000" stroke-width="1" /><text x="750" y="420" text-anchor="middle" font-family="Arial" font-size="12" fill="#000000">3.5</text><line x1="800" y1="395" x2="800" y2="405" stroke="#000000" stroke-width="1" /><text x="800" y="420" text-anchor="middle" font-family="Arial" font-size="12" fill="#000000">4</text><line x1="400" y1="0" x2="400" y2="400" stroke="#000000" stroke-width="2" /><line x1="395" y1="375" x2="405" y2="375" stroke="#000000" stroke-width="1" /><text x="390" y="380" text-anchor="end" font-family="Arial" font-size="12" fill="#000000">0.5</text><line x1="395" y1="350" x2="405" y2="350" stroke="#000000" stroke-width="1" /><text x="390" y="355" text-anchor="end" font-family="Arial" font-size="12" fill="#000000">1</text><line x1="395" y1="325" x2="405" y2="325" stroke="#000000" stroke-width="1" /><text x="390" y="330" text-anchor="end" font-family="Arial" font-size="12" fill="#000000">1.5</text><line x1="395" y1="300" x2="405" y2="300" stroke="#000000" stroke-width="1" /><text x="390" y="305" text-anchor="end" font-family="Arial" font-size="12" fill="#000000">2</text><line x1="395" y1="275" x2="405" y2="275" stroke="#000000" stroke-width="1" /><text x="390" y="280" text-anchor="end" font-family="Arial" font-size="12" fill="#000000">2.5</text><line x1="395" y1="250" x2="405" y2="250" stroke="#000000" stroke-width="1" /><text x="390" y="255" text-anchor="end" font-family="Arial" font-size="12" fill="#000000">3</text><line x1="395" y1="225" x2="405" y2="225" stroke="#000000" stroke-width="1" /><text x="390" y="230" text-anchor="end" font-family="Arial" font-size="12" fill="#000000">3.5</text><line x1="395" y1="200" x2="405" y2="200" stroke="#000000" stroke-width="1" /><text x="390" y="205" text-anchor="end" font-family="Arial" font-size="12" fill="#000000">4</text><line x1="395" y1="175" x2="405" y2="175" stroke="#000000" stroke-width="1" /><text x="390" y="180" text-anchor="end" font-family="Arial" font-size="12" fill="#000000">4.5</text><line x1="395" y1="150" x2="405" y2="150" stroke="#000000" stroke-width="1" /><text x="390" y="155" text-anchor="end" font-family="Arial" font-size="12" fill="#000000">5</text><line x1="395" y1="125" x2="405" y2="125" stroke="#000000" stroke-width="1" /><text x="390" y="130" text-anchor="end" font-family="Arial" font-size="12" fill="#000000">5.5</text><line x1="395" y1="100" x2="405" y2="100" stroke="#000000" stroke-width="1" /><text x="390" y="105" text-anchor="end" font-family="Arial" font-size="12" fill="#000000">6</text><line x1="395" y1="75" x2="405" y2="75" stroke="#000000" stroke-width="1" /><text x="390" y="80" text-anchor="end" font-family="Arial" font-size="12" fill="#000000">6.5</text><line x1="395" y1="50" x2="405" y2="50" stroke="#000000" stroke-width="1" /><text x="390" y="55" text-anchor="end" font-family="Arial" font-size="12" fill="#000000">7</text><line x1="395" y1="25" x2="405" y2="25" stroke="#000000" stroke-width="1" /><text x="390" y="30" text-anchor="end" font-family="Arial" font-size="12" fill="#000000">7.5</text><line x1="395" y1="0" x2="405" y2="0" stroke="#000000" stroke-width="1" /><text x="390" y="5" text-anchor="end" font-family="Arial" font-size="12" fill="#000000">8</text><text x="390" y="420" text-anchor="end" font-family="Arial" font-size="12" fill="#000000">0</text><text x="400" y="390" text-anchor="middle" font-family="Arial" font-size="14" fill="#000000">x</text><text x="15" y="200" text-anchor="middle" font-family="Arial" font-size="14" fill="#000000" transform="rotate(-90, 15, 200)">y</text><text x="400" y="20" text-anchor="middle" font-family="Arial" font-size="16" fill="#000000">Exponential Function: y = e^(x/2)</text></svg>