<svg xmlns="http://www.w3.org/2000/svg" width="800" height="400" viewBox="0 0 800 400"><rect width="800" height="400" fill="#ffffff" /><line x1="32.323232323232325" y1="0" x2="32.323232323232325" y2="400" stroke="#e0e0e0" stroke-width="1" stroke-dasharray="5,5" /><line x1="72.72727272727272" y1="0" x2="72.72727272727272" y2="400" stroke="#e0e0e0" stroke-width="1" stroke-dasharray="5,5" /><line x1="113.13131313131312" y1="0" x2="113.13131313131312" y2="400" stroke="#e0e0e0" stroke-width="1" stroke-dasharray="5,5" /><line x1="153.53535353535352" y1="0" x2="153.53535353535352" y2="400" stroke="#e0e0e0" stroke-width="1" stroke-dasharray="5,5" /><line x1="193.9393939393939" y1="0" x2="193.9393939393939" y2="400" stroke="#e0e0e0" stroke-width="1" stroke-dasharray="5,5" /><line x1="234.34343434343432" y1="0" x2="234.34343434343432" y2="400" stroke="#e0e0e0" stroke-width="1" stroke-dasharray="5,5" /><line x1="274.7474747474747" y1="0" x2="274.7474747474747" y2="400" stroke="#e0e0e0" stroke-width="1" stroke-dasharray="5,5" /><line x1="315.1515151515151" y1="0" x2="315.1515151515151" y2="400" stroke="#e0e0e0" stroke-width="1" stroke-dasharray="5,5" /><line x1="355.55555555555554" y1="0" x2="355.55555555555554" y2="400" stroke="#e0e0e0" stroke-width="1" stroke-dasharray="5,5" /><line x1="395.95959595959596" y1="0" x2="395.95959595959596" y2="400" stroke="#e0e0e0" stroke-width="1" stroke-dasharray="5,5" /><line x1="436.3636363636364" y1="0" x2="436.3636363636364" y2="400" stroke="#e0e0e0" stroke-width="1" stroke-dasharray="5,5" /><line x1="476.7676767676768" y1="0" x2="476.7676767676768" y2="400" stroke="#e0e0e0" stroke-width="1" stroke-dasharray="5,5" /><line x1="517.1717171717172" y1="0" x2="517.1717171717172" y2="400" stroke="#e0e0e0" stroke-width="1" stroke-dasharray="5,5" /><line x1="557.5757575757576" y1="0" x2="557.5757575757576" y2="400" stroke="#e0e0e0" stroke-width="1" stroke-dasharray="5,5" /><line x1="597.9797979797979" y1="0" x2="597.9797979797979" y2="400" stroke="#e0e0e0" stroke-width="1" stroke-dasharray="5,5" /><line x1="638.3838383838383" y1="0" x2="638.3838383838383" y2="400" stroke="#e0e0e0" stroke-width="1" stroke-dasharray="5,5" /><line x1="678.7878787878788" y1="0" x2="678.7878787878788" y2="400" stroke="#e0e0e0" stroke-width="1" stroke-dasharray="5,5" /><line x1="719.1919191919192" y1="0" x2="719.1919191919192" y2="400" stroke="#e0e0e0" stroke-width="1" stroke-dasharray="5,5" /><line x1="759.5959595959596" y1="0" x2="759.5959595959596" y2="400" stroke="#e0e0e0" stroke-width="1" stroke-dasharray="5,5" /><line x1="800" y1="0" x2="800" y2="400" stroke="#e0e0e0" stroke-width="1" stroke-dasharray="5,5" /><line x1="0" y1="400" x2="800" y2="400" stroke="#e0e0e0" stroke-width="1" stroke-dasharray="5,5" /><line x1="0" y1="366.6666666666667" x2="800" y2="366.6666666666667" stroke="#e0e0e0" stroke-width="1" stroke-dasharray="5,5" /><line x1="0" y1="333.3333333333333" x2="800" y2="333.3333333333333" stroke="#e0e0e0" stroke-width="1" stroke-dasharray="5,5" /><line x1="0" y1="300" x2="800" y2="300" stroke="#e0e0e0" stroke-width="1" stroke-dasharray="5,5" /><line x1="0" y1="266.66666666666663" x2="800" y2="266.66666666666663" stroke="#e0e0e0" stroke-width="1" stroke-dasharray="5,5" /><line x1="0" y1="233.33333333333331" x2="800" y2="233.33333333333331" stroke="#e0e0e0" stroke-width="1" stroke-dasharray="5,5" /><line x1="0" y1="200" x2="800" y2="200" stroke="#e0e0e0" stroke-width="1" stroke-dasharray="5,5" /><line x1="0" y1="166.66666666666666" x2="800" y2="166.66666666666666" stroke="#e0e0e0" stroke-width="1" stroke-dasharray="5,5" /><line x1="0" y1="133.33333333333331" x2="800" y2="133.33333333333331" stroke="#e0e0e0" stroke-width="1" stroke-dasharray="5,5" /><line x1="0" y1="100" x2="800" y2="100" stroke="#e0e0e0" stroke-width="1" stroke-dasharray="5,5" /><line x1="0" y1="66.66666666666663" x2="800" y2="66.66666666666663" stroke="#e0e0e0" stroke-width="1" stroke-dasharray="5,5" /><line x1="0" y1="33.333333333333314" x2="800" y2="33.333333333333314" stroke="#e0e0e0" stroke-width="1" stroke-dasharray="5,5" /><line x1="0" y1="0" x2="800" y2="0" stroke="#e0e0e0" stroke-width="1" stroke-dasharray="5,5" /><line x1="0" y1="200" x2="800" y2="200" stroke="#000000" stroke-width="2" /><line x1="32.323232323232325" y1="195" x2="32.323232323232325" y2="205" stroke="#000000" stroke-width="1" /><text x="32.323232323232325" y="220" text-anchor="middle" font-family="Arial" font-size="12" fill="#000000">0.5</text><line x1="72.72727272727272" y1="195" x2="72.72727272727272" y2="205" stroke="#000000" stroke-width="1" /><text x="72.72727272727272" y="220" text-anchor="middle" font-family="Arial" font-size="12" fill="#000000">1</text><line x1="113.13131313131312" y1="195" x2="113.13131313131312" y2="205" stroke="#000000" stroke-width="1" /><text x="113.13131313131312" y="220" text-anchor="middle" font-family="Arial" font-size="12" fill="#000000">1.5</text><line x1="153.53535353535352" y1="195" x2="153.53535353535352" y2="205" stroke="#000000" stroke-width="1" /><text x="153.53535353535352" y="220" text-anchor="middle" font-family="Arial" font-size="12" fill="#000000">2</text><line x1="193.9393939393939" y1="195" x2="193.9393939393939" y2="205" stroke="#000000" stroke-width="1" /><text x="193.9393939393939" y="220" text-anchor="middle" font-family="Arial" font-size="12" fill="#000000">2.5</text><line x1="234.34343434343432" y1="195" x2="234.34343434343432" y2="205" stroke="#000000" stroke-width="1" /><text x="234.34343434343432" y="220" text-anchor="middle" font-family="Arial" font-size="12" fill="#000000">3</text><line x1="274.7474747474747" y1="195" x2="274.7474747474747" y2="205" stroke="#000000" stroke-width="1" /><text x="274.7474747474747" y="220" text-anchor="middle" font-family="Arial" font-size="12" fill="#000000">3.5</text><line x1="315.1515151515151" y1="195" x2="315.1515151515151" y2="205" stroke="#000000" stroke-width="1" /><text x="315.1515151515151" y="220" text-anchor="middle" font-family="Arial" font-size="12" fill="#000000">4</text><line x1="355.55555555555554" y1="195" x2="355.55555555555554" y2="205" stroke="#000000" stroke-width="1" /><text x="355.55555555555554" y="220" text-anchor="middle" font-family="Arial" font-size="12" fill="#000000">4.5</text><line x1="395.95959595959596" y1="195" x2="395.95959595959596" y2="205" stroke="#000000" stroke-width="1" /><text x="395.95959595959596" y="220" text-anchor="middle" font-family="Arial" font-size="12" fill="#000000">5</text><line x1="436.3636363636364" y1="195" x2="436.3636363636364" y2="205" stroke="#000000" stroke-width="1" /><text x="436.3636363636364" y="220" text-anchor="middle" font-family="Arial" font-size="12" fill="#000000">5.5</text><line x1="476.7676767676768" y1="195" x2="476.7676767676768" y2="205" stroke="#000000" stroke-width="1" /><text x="476.7676767676768" y="220" text-anchor="middle" font-family="Arial" font-size="12" fill="#000000">6</text><line x1="517.1717171717172" y1="195" x2="517.1717171717172" y2="205" stroke="#000000" stroke-width="1" /><text x="517.1717171717172" y="220" text-anchor="middle" font-family="Arial" font-size="12" fill="#000000">6.5</text><line x1="557.5757575757576" y1="195" x2="557.5757575757576" y2="205" stroke="#000000" stroke-width="1" /><text x="557.5757575757576" y="220" text-anchor="middle" font-family="Arial" font-size="12" fill="#000000">7</text><line x1="597.9797979797979" y1="195" x2="597.9797979797979" y2="205" stroke="#000000" stroke-width="1" /><text x="597.9797979797979" y="220" text-anchor="middle" font-family="Arial" font-size="12" fill="#000000">7.5</text><line x1="638.3838383838383" y1="195" x2="638.3838383838383" y2="205" stroke="#000000" stroke-width="1" /><text x="638.3838383838383" y="220" text-anchor="middle" font-family="Arial" font-size="12" fill="#000000">8</text><line x1="678.7878787878788" y1="195" x2="678.7878787878788" y2="205" stroke="#000000" stroke-width="1" /><text x="678.7878787878788" y="220" text-anchor="middle" font-family="Arial" font-size="12" fill="#000000">8.5</text><line x1="719.1919191919192" y1="195" x2="719.1919191919192" y2="205" stroke="#000000" stroke-width="1" /><text x="719.1919191919192" y="220" text-anchor="middle" font-family="Arial" font-size="12" fill="#000000">9</text><line x1="759.5959595959596" y1="195" x2="759.5959595959596" y2="205" stroke="#000000" stroke-width="1" /><text x="759.5959595959596" y="220" text-anchor="middle" font-family="Arial" font-size="12" fill="#000000">9.5</text><line x1="800" y1="195" x2="800" y2="205" stroke="#000000" stroke-width="1" /><text x="800" y="220" text-anchor="middle" font-family="Arial" font-size="12" fill="#000000">10</text><text x="400" y="390" text-anchor="middle" font-family="Arial" font-size="14" fill="#000000">x</text><text x="15" y="200" text-anchor="middle" font-family="Arial" font-size="14" fill="#000000" transform="rotate(-90, 15, 200)">y</text><text x="400" y="20" text-anchor="middle" font-family="Arial" font-size="16" fill="#000000">Logarithmic Function: y = ln(x)</text></svg>