<svg xmlns="http://www.w3.org/2000/svg" width="800" height="400" viewBox="0 0 800 400"><rect width="800" height="400" fill="#ffffff" /><line x1="0" y1="0" x2="0" y2="400" stroke="#e0e0e0" stroke-width="1" stroke-dasharray="5,5" /><line x1="50" y1="0" x2="50" y2="400" stroke="#e0e0e0" stroke-width="1" stroke-dasharray="5,5" /><line x1="100" y1="0" x2="100" y2="400" stroke="#e0e0e0" stroke-width="1" stroke-dasharray="5,5" /><line x1="150" y1="0" x2="150" y2="400" stroke="#e0e0e0" stroke-width="1" stroke-dasharray="5,5" /><line x1="200" y1="0" x2="200" y2="400" stroke="#e0e0e0" stroke-width="1" stroke-dasharray="5,5" /><line x1="250" y1="0" x2="250" y2="400" stroke="#e0e0e0" stroke-width="1" stroke-dasharray="5,5" /><line x1="300" y1="0" x2="300" y2="400" stroke="#e0e0e0" stroke-width="1" stroke-dasharray="5,5" /><line x1="350" y1="0" x2="350" y2="400" stroke="#e0e0e0" stroke-width="1" stroke-dasharray="5,5" /><line x1="400" y1="0" x2="400" y2="400" stroke="#e0e0e0" stroke-width="1" stroke-dasharray="5,5" /><line x1="450" y1="0" x2="450" y2="400" stroke="#e0e0e0" stroke-width="1" stroke-dasharray="5,5" /><line x1="500" y1="0" x2="500" y2="400" stroke="#e0e0e0" stroke-width="1" stroke-dasharray="5,5" /><line x1="550" y1="0" x2="550" y2="400" stroke="#e0e0e0" stroke-width="1" stroke-dasharray="5,5" /><line x1="600" y1="0" x2="600" y2="400" stroke="#e0e0e0" stroke-width="1" stroke-dasharray="5,5" /><line x1="650" y1="0" x2="650" y2="400" stroke="#e0e0e0" stroke-width="1" stroke-dasharray="5,5" /><line x1="700" y1="0" x2="700" y2="400" stroke="#e0e0e0" stroke-width="1" stroke-dasharray="5,5" /><line x1="750" y1="0" x2="750" y2="400" stroke="#e0e0e0" stroke-width="1" stroke-dasharray="5,5" /><line x1="800" y1="0" x2="800" y2="400" stroke="#e0e0e0" stroke-width="1" stroke-dasharray="5,5" /><line x1="0" y1="400" x2="800" y2="400" stroke="#e0e0e0" stroke-width="1" stroke-dasharray="5,5" /><line x1="0" y1="360" x2="800" y2="360" stroke="#e0e0e0" stroke-width="1" stroke-dasharray="5,5" /><line x1="0" y1="320" x2="800" y2="320" stroke="#e0e0e0" stroke-width="1" stroke-dasharray="5,5" /><line x1="0" y1="280" x2="800" y2="280" stroke="#e0e0e0" stroke-width="1" stroke-dasharray="5,5" /><line x1="0" y1="240" x2="800" y2="240" stroke="#e0e0e0" stroke-width="1" stroke-dasharray="5,5" /><line x1="0" y1="200" x2="800" y2="200" stroke="#e0e0e0" stroke-width="1" stroke-dasharray="5,5" /><line x1="0" y1="160" x2="800" y2="160" stroke="#e0e0e0" stroke-width="1" stroke-dasharray="5,5" /><line x1="0" y1="120" x2="800" y2="120" stroke="#e0e0e0" stroke-width="1" stroke-dasharray="5,5" /><line x1="0" y1="80" x2="800" y2="80" stroke="#e0e0e0" stroke-width="1" stroke-dasharray="5,5" /><line x1="0" y1="40" x2="800" y2="40" stroke="#e0e0e0" stroke-width="1" stroke-dasharray="5,5" /><line x1="0" y1="0" x2="800" y2="0" stroke="#e0e0e0" stroke-width="1" stroke-dasharray="5,5" /><line x1="0" y1="320" x2="800" y2="320" stroke="#000000" stroke-width="2" /><line x1="0" y1="315" x2="0" y2="325" stroke="#000000" stroke-width="1" /><text x="0" y="340" text-anchor="middle" font-family="Arial" font-size="12" fill="#000000">-2</text><line x1="50" y1="315" x2="50" y2="325" stroke="#000000" stroke-width="1" /><text x="50" y="340" text-anchor="middle" font-family="Arial" font-size="12" fill="#000000">-1.5</text><line x1="100" y1="315" x2="100" y2="325" stroke="#000000" stroke-width="1" /><text x="100" y="340" text-anchor="middle" font-family="Arial" font-size="12" fill="#000000">-1</text><line x1="150" y1="315" x2="150" y2="325" stroke="#000000" stroke-width="1" /><text x="150" y="340" text-anchor="middle" font-family="Arial" font-size="12" fill="#000000">-0.5</text><line x1="250" y1="315" x2="250" y2="325" stroke="#000000" stroke-width="1" /><text x="250" y="340" text-anchor="middle" font-family="Arial" font-size="12" fill="#000000">0.5</text><line x1="300" y1="315" x2="300" y2="325" stroke="#000000" stroke-width="1" /><text x="300" y="340" text-anchor="middle" font-family="Arial" font-size="12" fill="#000000">1</text><line x1="350" y1="315" x2="350" y2="325" stroke="#000000" stroke-width="1" /><text x="350" y="340" text-anchor="middle" font-family="Arial" font-size="12" fill="#000000">1.5</text><line x1="400" y1="315" x2="400" y2="325" stroke="#000000" stroke-width="1" /><text x="400" y="340" text-anchor="middle" font-family="Arial" font-size="12" fill="#000000">2</text><line x1="450" y1="315" x2="450" y2="325" stroke="#000000" stroke-width="1" /><text x="450" y="340" text-anchor="middle" font-family="Arial" font-size="12" fill="#000000">2.5</text><line x1="500" y1="315" x2="500" y2="325" stroke="#000000" stroke-width="1" /><text x="500" y="340" text-anchor="middle" font-family="Arial" font-size="12" fill="#000000">3</text><line x1="550" y1="315" x2="550" y2="325" stroke="#000000" stroke-width="1" /><text x="550" y="340" text-anchor="middle" font-family="Arial" font-size="12" fill="#000000">3.5</text><line x1="600" y1="315" x2="600" y2="325" stroke="#000000" stroke-width="1" /><text x="600" y="340" text-anchor="middle" font-family="Arial" font-size="12" fill="#000000">4</text><line x1="650" y1="315" x2="650" y2="325" stroke="#000000" stroke-width="1" /><text x="650" y="340" text-anchor="middle" font-family="Arial" font-size="12" fill="#000000">4.5</text><line x1="700" y1="315" x2="700" y2="325" stroke="#000000" stroke-width="1" /><text x="700" y="340" text-anchor="middle" font-family="Arial" font-size="12" fill="#000000">5</text><line x1="750" y1="315" x2="750" y2="325" stroke="#000000" stroke-width="1" /><text x="750" y="340" text-anchor="middle" font-family="Arial" font-size="12" fill="#000000">5.5</text><line x1="800" y1="315" x2="800" y2="325" stroke="#000000" stroke-width="1" /><text x="800" y="340" text-anchor="middle" font-family="Arial" font-size="12" fill="#000000">6</text><line x1="200" y1="0" x2="200" y2="400" stroke="#000000" stroke-width="2" /><line x1="195" y1="400" x2="205" y2="400" stroke="#000000" stroke-width="1" /><text x="190" y="405" text-anchor="end" font-family="Arial" font-size="12" fill="#000000">-2</text><line x1="195" y1="360" x2="205" y2="360" stroke="#000000" stroke-width="1" /><text x="190" y="365" text-anchor="end" font-family="Arial" font-size="12" fill="#000000">-1</text><line x1="195" y1="280" x2="205" y2="280" stroke="#000000" stroke-width="1" /><text x="190" y="285" text-anchor="end" font-family="Arial" font-size="12" fill="#000000">1</text><line x1="195" y1="240" x2="205" y2="240" stroke="#000000" stroke-width="1" /><text x="190" y="245" text-anchor="end" font-family="Arial" font-size="12" fill="#000000">2</text><line x1="195" y1="200" x2="205" y2="200" stroke="#000000" stroke-width="1" /><text x="190" y="205" text-anchor="end" font-family="Arial" font-size="12" fill="#000000">3</text><line x1="195" y1="160" x2="205" y2="160" stroke="#000000" stroke-width="1" /><text x="190" y="165" text-anchor="end" font-family="Arial" font-size="12" fill="#000000">4</text><line x1="195" y1="120" x2="205" y2="120" stroke="#000000" stroke-width="1" /><text x="190" y="125" text-anchor="end" font-family="Arial" font-size="12" fill="#000000">5</text><line x1="195" y1="80" x2="205" y2="80" stroke="#000000" stroke-width="1" /><text x="190" y="85" text-anchor="end" font-family="Arial" font-size="12" fill="#000000">6</text><line x1="195" y1="40" x2="205" y2="40" stroke="#000000" stroke-width="1" /><text x="190" y="45" text-anchor="end" font-family="Arial" font-size="12" fill="#000000">7</text><line x1="195" y1="0" x2="205" y2="0" stroke="#000000" stroke-width="1" /><text x="190" y="5" text-anchor="end" font-family="Arial" font-size="12" fill="#000000">8</text><text x="190" y="340" text-anchor="end" font-family="Arial" font-size="12" fill="#000000">0</text><text x="400" y="390" text-anchor="middle" font-family="Arial" font-size="14" fill="#000000">x</text><text x="15" y="200" text-anchor="middle" font-family="Arial" font-size="14" fill="#000000" transform="rotate(-90, 15, 200)">y</text><text x="400" y="20" text-anchor="middle" font-family="Arial" font-size="16" fill="#000000">Quadratic Function: y = x² - 4x + 3</text></svg>